<svg width="48" height="48" viewBox="0 0 48 48" fill="none" xmlns="http://www.w3.org/2000/svg">
<rect x="-0.00109863" width="48" height="48" rx="20" fill="#FF8700"/>
<path fill-rule="evenodd" clip-rule="evenodd" d="M29.7686 20.3818H33.9998C33.9998 16.9846 31.9642 15 28.5153 15H19.4842C16.0353 15 13.9998 16.9846 13.9998 20.3385V27.6615C13.9998 31.0154 16.0353 33 19.4842 33H28.5153C31.9642 33 33.9998 31.0154 33.9998 27.6615V27.3496H29.7686C27.805 27.3496 26.2131 25.7975 26.2131 23.883C26.2131 21.9685 27.805 20.4165 29.7686 20.4165V20.3818ZM29.7683 21.8724H33.2528C33.6651 21.8724 33.9994 22.1984 33.9994 22.6004V25.131C33.9946 25.5311 33.6631 25.8543 33.2528 25.8589H29.8483C28.8542 25.872 27.9849 25.2084 27.7594 24.2643C27.6465 23.6783 27.805 23.0736 28.1925 22.6122C28.58 22.1509 29.1568 21.8801 29.7683 21.8724ZM29.9207 24.533H30.2496C30.6718 24.533 31.014 24.1993 31.014 23.7877C31.014 23.3761 30.6718 23.0424 30.2496 23.0424H29.9207C29.7188 23.0401 29.5243 23.1167 29.3807 23.2551C29.237 23.3935 29.1562 23.5822 29.1562 23.779C29.1562 24.1921 29.497 24.5283 29.9207 24.533ZM18.7382 20.3818H24.3827C24.8049 20.3818 25.1471 20.0481 25.1471 19.6365C25.1471 19.2249 24.8049 18.8912 24.3827 18.8912H18.7382C18.3195 18.8912 17.9787 19.2196 17.9738 19.6279C17.9738 20.0409 18.3146 20.3771 18.7382 20.3818Z" fill="white"/>
</svg>
