<svg width="48" height="48" viewBox="0 0 48 48" fill="none" xmlns="http://www.w3.org/2000/svg">
<rect x="-0.000732422" width="48" height="48" rx="20" fill="#B548C6"/>
<path d="M23.2281 19.2905V15.2815C23.2281 14.8552 23.5681 14.5 23.9981 14.5C24.3831 14.5 24.7093 14.7985 24.761 15.1766L24.7681 15.2815V19.2905L29.548 19.2908C31.928 19.2908 33.8834 21.2398 33.9932 23.6704L33.998 23.8861V28.9254C33.998 31.373 32.1107 33.3822 29.7661 33.495L29.558 33.5H18.438C16.058 33.5 14.1121 31.5608 14.0029 29.1213L13.998 28.9047L13.998 23.8758C13.998 21.4281 15.876 19.4092 18.22 19.2958L18.428 19.2908H23.228V25.6932L21.628 24.041C21.328 23.7312 20.838 23.7312 20.538 24.041C20.388 24.1959 20.318 24.4024 20.318 24.6089C20.318 24.7659 20.3628 24.9295 20.4576 25.0679L20.538 25.1666L23.448 28.1819C23.588 28.3368 23.788 28.4194 23.998 28.4194C24.1647 28.4194 24.3314 28.362 24.4633 28.2533L24.538 28.1819L27.448 25.1666C27.748 24.8568 27.748 24.3508 27.448 24.041C27.1753 23.7594 26.7456 23.7338 26.4443 23.9642L26.358 24.041L24.768 25.6932V19.2908L23.2281 19.2905Z" fill="white"/>
</svg>
