<svg width="48" height="48" viewBox="0 0 48 48" fill="none" xmlns="http://www.w3.org/2000/svg">
<rect x="-0.000244141" width="48" height="48" rx="20" fill="#32A7E2"/>
<path fill-rule="evenodd" clip-rule="evenodd" d="M22.8339 24.0066L22.8355 24.3607C22.8476 25.7652 22.9323 27.0183 23.0783 27.8124C23.0783 27.8267 23.2376 28.6143 23.339 28.8764C23.4983 29.2554 23.7863 29.577 24.1474 29.7808C24.4365 29.9262 24.7397 30 25.0572 30C25.3067 29.9884 25.7183 29.8629 26.012 29.7576L26.2561 29.664C27.8728 29.0218 30.9633 26.9234 32.1469 25.6402L32.2342 25.5505L32.6236 25.1302C32.8691 24.8085 32.9989 24.4153 32.9989 23.9923C32.9989 23.6134 32.8833 23.2344 32.652 22.9282C32.5828 22.829 32.4712 22.7017 32.372 22.5942L31.9929 22.1974C30.6884 20.8757 27.8641 19.0218 26.4001 18.4076C26.4001 18.3943 25.4903 18.0143 25.0572 18H24.9994C24.335 18 23.7143 18.3789 23.3968 18.9914C23.3101 19.1588 23.2269 19.4868 23.1637 19.7748L23.0499 20.3187C22.9201 21.1933 22.8339 22.535 22.8339 24.0066ZM16.5022 22.4817C15.672 22.4817 14.9989 23.1613 14.9989 23.9996C14.9989 24.8378 15.672 25.5175 16.5022 25.5175L20.2014 25.1903C20.8526 25.1903 21.3806 24.6583 21.3806 23.9996C21.3806 23.3419 20.8526 22.8088 20.2014 22.8088L16.5022 22.4817Z" fill="white"/>
</svg>
